<svg version="1.1" xmlns="http://www.w3.org/2000/svg" style="display: block;" viewBox="0 0 2048 2048" width="1024" height="1024" preserveAspectRatio="none">
<defs>
	<linearGradient id="Gradient1" gradientUnits="userSpaceOnUse" x1="191.545" y1="392.148" x2="186.514" y2="391.436">
		<stop class="stop0" offset="0" stop-opacity="0" stop-color="rgb(1,0,2)"/>
		<stop class="stop1" offset="1" stop-opacity="0.0588235" stop-color="rgb(11,6,15)"/>
	</linearGradient>
</defs>
<path transform="translate(0,0)" fill="rgb(215,197,156)" d="M 854.333 256.509 L 1257.38 256.009 L 1382.56 256.149 C 1434.36 256.234 1478.7 254.167 1529.55 266.395 C 1650.14 295.393 1745.78 388.072 1778.72 507.54 C 1792.29 556.746 1790.81 597.238 1790.72 647.848 L 1790.76 750.395 L 1791.2 1202.88 L 1790.64 1365.51 L 1790.64 1430.97 C 1790.64 1444.55 1790.89 1458.4 1790.08 1471.78 C 1780.47 1627.74 1662.21 1761.15 1507.49 1785.93 C 1460.57 1793.44 1418.97 1791.01 1371.83 1790.99 L 1193.5 1790.96 L 760.375 1790.97 L 646.941 1790.9 C 605.55 1790.93 569.491 1792.66 529.048 1784.38 C 393.572 1756.66 285.215 1645.17 260.431 1509.32 C 257.22 1491.72 257.19 1475.12 257.089 1457.16 L 256.721 825.623 L 256.858 641.986 C 256.897 629.757 257.549 615.734 257.004 603.943 C 251.425 483.309 320.529 367.016 422.375 304.645 C 444.314 291.21 474.144 279.975 499.87 271.604 C 556.668 253.122 615.578 257.1 674.582 257.021 L 854.333 256.509 z"/>
<path transform="translate(0,0)" fill="rgb(69,73,101)" d="M 791.052 782.381 C 835.512 778.664 879.804 791.266 915.648 817.832 C 1057.47 923.487 1010.92 1172.27 824.248 1196.85 C 794.412 1198.61 771.758 1197 743.45 1186.39 C 673.263 1160.09 626.339 1094.46 616.256 1021.23 C 607.951 962.049 623.569 901.993 659.655 854.352 C 693.073 810.731 737.744 789.525 791.052 782.381 z"/>
<path transform="translate(0,0)" fill="rgb(69,73,101)" d="M 799.541 469.421 C 800.84 469.289 801.683 469.206 802.995 469.175 C 850.008 468.369 895.386 486.427 928.992 519.314 C 952.008 542.054 968.342 570.675 976.214 602.059 C 983.528 631.325 981.664 676.861 981.716 708.44 L 981.709 843.633 C 957.236 812.533 934.833 793.795 901.049 773.656 C 895.004 770.052 882.313 757.594 876.57 752.392 L 867.11 761.289 C 860.879 759.497 853.979 757.855 847.653 756.213 C 852.437 750.981 857.977 745.595 863.005 740.521 C 856.249 733.643 848.141 726.428 841.017 719.804 C 833.994 726.836 826.557 733.876 819.405 740.815 L 831.694 754.287 C 827.773 753.988 823.66 753.497 819.73 753.095 C 805.953 752.674 794.407 752.253 780.691 754.387 L 793.674 741.251 C 786.612 734.096 779.432 727.059 772.138 720.143 C 764.118 727.193 757.192 733.468 749.525 740.946 L 764.946 756.509 L 746.145 761.608 L 736.664 752.794 C 731.655 757.425 719.494 769.228 714.176 772.613 C 702.353 780.139 691.943 785.531 680.302 794.088 C 659.476 809.397 646.786 823.429 631.161 843.229 L 630.973 712.05 C 630.975 679.943 629.125 633.639 635.856 604.129 C 642.051 577.359 654.526 552.446 672.252 531.449 C 706.219 491.819 748.161 473.274 799.541 469.421 z"/>
<path transform="translate(0,0)" fill="rgb(215,197,156)" d="M 806.847 688.81 L 827.993 708.122 C 822.374 714.283 813.006 722.377 806.643 728.194 C 802.513 726.1 789.249 712.755 785.154 708.683 C 791.184 702.348 800.171 694.769 806.847 688.81 z"/>
<path transform="translate(0,0)" fill="rgb(215,197,156)" d="M 674.896 692.763 C 678.092 695.045 690.892 707.737 694.47 711.147 C 688.915 716.864 681.036 723.661 675.027 729.149 C 673.427 730.677 673.181 730.817 671.399 732.11 C 667.009 731.216 662.896 726.311 659.434 722.994 L 659.026 708.221 L 674.896 692.763 z"/>
<path transform="translate(0,0)" fill="rgb(215,197,156)" d="M 937.992 692.712 C 940.298 694.107 951.158 705.018 953.806 707.598 C 953.914 713 953.314 718.477 952.87 723.876 C 949.842 726.771 946.245 731.277 942.59 732.609 L 940.911 731.362 C 933.764 724.542 926.565 717.779 919.312 711.073 C 925.008 704.974 931.934 698.568 937.992 692.712 z"/>
<path transform="translate(0,0)" fill="rgb(215,197,156)" d="M 676.131 629.644 C 679.14 630.916 692.817 645.249 696.003 648.463 L 676.652 666.958 L 675.749 667.463 C 669.322 665.48 659.139 653.97 659.139 646.533 C 661.38 642.316 672.138 633.279 676.131 629.644 z"/>
<path transform="translate(0,0)" fill="rgb(215,197,156)" d="M 706.898 723.802 C 710.818 726.851 720.469 736.805 724.478 740.722 C 716.742 747.23 708.736 754.63 701.055 761.334 C 696.42 760.052 687.182 749.941 683.328 746.093 C 690.737 738.51 699.088 731.036 706.898 723.802 z"/>
<path transform="translate(0,0)" fill="rgb(215,197,156)" d="M 936.298 629.808 C 940.309 631.02 945.518 636.894 948.722 639.881 C 960.792 651.133 945.457 661.333 937.86 668.229 C 931.264 661.542 924.199 654.902 917.42 648.367 C 923.288 642.129 930.101 635.795 936.298 629.808 z"/>
<path transform="translate(0,0)" fill="rgb(215,197,156)" d="M 709.112 660.866 C 711.035 662.129 725.231 676.191 728.317 679.085 C 721.411 685.472 714.561 691.921 707.769 698.428 C 704.064 697.197 691.548 684.183 687.97 680.633 C 694.369 674.095 702.304 667.129 709.112 660.866 z"/>
<path transform="translate(0,0)" fill="rgb(215,197,156)" d="M 904.842 660.755 C 908.881 663.849 921.116 676.748 925.347 681.009 C 918.895 686.753 912.787 692.933 906.643 699.01 C 900.206 692.357 892.159 685.338 885.254 679.026 C 890.905 673.002 898.615 666.386 904.842 660.755 z"/>
<path transform="translate(0,0)" fill="rgb(215,197,156)" d="M 906.159 723.731 C 908.635 724.951 925.978 742.667 929.623 746.159 C 924.174 751.263 918.561 757.005 913.21 762.277 C 906.554 756.871 895.894 746.478 889.234 740.392 L 906.159 723.731 z"/>
<path transform="translate(0,0)" fill="rgb(215,197,156)" d="M 708.32 535.653 C 713.964 539.97 722.965 549.328 728.334 554.597 L 709.479 573.353 C 706.169 571.293 693.022 558.927 689.349 555.595 C 695.246 547.658 700.908 542.06 708.32 535.653 z"/>
<path transform="translate(0,0)" fill="rgb(215,197,156)" d="M 839.603 535.972 C 846.089 542.136 852.495 548.384 858.819 554.715 C 852.481 561.05 845.933 567.335 839.515 573.604 C 833.156 567.332 825.943 560.858 819.371 554.721 C 825.028 548.738 833.212 541.039 839.603 535.972 z"/>
<path transform="translate(0,0)" fill="rgb(215,197,156)" d="M 806.422 567.755 C 810.322 568.846 822.705 582.174 826.39 585.843 C 820.424 591.958 813.458 598.369 807.246 604.338 C 803.28 602.405 790.799 589.672 786.885 585.825 C 793.211 579.603 799.727 573.577 806.422 567.755 z"/>
<path transform="translate(0,0)" fill="rgb(215,197,156)" d="M 708.956 598.624 C 712.518 600.456 724.961 613.451 728.585 617.059 C 722.661 623.24 715.998 629.345 709.757 635.257 C 705.118 633.374 693.332 621.469 689.153 617.405 C 695.182 611.088 702.493 604.607 708.956 598.624 z"/>
<path transform="translate(0,0)" fill="rgb(215,197,156)" d="M 774.074 535.957 C 780.664 541.858 787.337 548.511 793.739 554.678 L 773.981 573.661 C 767.376 567.465 760.811 561.228 754.285 554.949 C 760.561 548.395 767.431 542.161 774.074 535.957 z"/>
<path transform="translate(0,0)" fill="rgb(215,197,156)" d="M 806.018 504.757 C 810.307 507.38 821.907 519.328 826.031 523.444 C 820.139 529.486 813.713 535.631 807.682 541.592 C 804.636 541.465 790.25 526.675 786.974 523.49 C 793.222 517.145 799.57 510.899 806.018 504.757 z"/>
<path transform="translate(0,0)" fill="rgb(215,197,156)" d="M 872.05 567.722 C 875.001 568.577 888.455 582.837 891.541 585.94 L 871.939 604.981 L 852.011 585.86 C 858.855 579.234 864.794 573.902 872.05 567.722 z"/>
<path transform="translate(0,0)" fill="rgb(215,197,156)" d="M 904.166 598.563 C 907.839 599.895 920.327 613.733 923.828 617.372 L 904.645 635.744 C 897.837 629.595 891.125 623.341 884.512 616.983 C 890.677 610.784 897.705 604.529 904.166 598.563 z"/>
<path transform="translate(0,0)" fill="rgb(215,197,156)" d="M 905.05 535.718 C 908.948 537.742 919.967 551.175 923.451 555.257 L 904.681 573.595 C 898.206 567.667 891.342 560.735 884.973 554.581 C 891.213 548.094 898.367 541.808 905.05 535.718 z"/>
<path transform="translate(0,0)" fill="rgb(215,197,156)" d="M 774.181 598.62 C 777.13 599.752 790.424 613.974 793.483 617.099 L 774.73 635.471 C 770.391 633.333 758.695 621.352 754.604 617.34 C 760.627 610.678 767.524 604.669 774.181 598.62 z"/>
<path transform="translate(0,0)" fill="rgb(215,197,156)" d="M 742.117 629.778 C 745.139 631.481 758.228 644.859 761.444 648.058 C 754.707 653.948 748.288 660.191 741.818 666.374 C 738.622 665.184 725.213 651.956 721.883 648.769 C 727.78 642.504 735.667 635.666 742.117 629.778 z"/>
<path transform="translate(0,0)" fill="rgb(215,197,156)" d="M 871.952 629.745 C 874.823 631.467 888.177 645.518 891.376 648.777 L 872.653 666.488 C 865.661 660.288 858.768 653.978 851.976 647.559 C 858.105 641.672 865.518 635.426 871.952 629.745 z"/>
<path transform="translate(0,0)" fill="rgb(215,197,156)" d="M 741.26 567.665 C 744.886 569.461 757.135 582.321 760.777 585.955 C 755.439 592.073 747.664 598.984 741.624 604.657 L 721.894 586.194 C 727.19 580.254 735.263 573.206 741.26 567.665 z"/>
<path transform="translate(0,0)" fill="rgb(215,197,156)" d="M 839.19 598.591 C 842.951 600.437 855.084 613.531 858.789 617.316 C 852.214 623.239 845.691 629.219 839.22 635.255 C 832.603 629.255 826.029 623.208 819.498 617.115 C 825.449 611.077 832.914 604.449 839.19 598.591 z"/>
<path transform="translate(0,0)" fill="rgb(215,197,156)" d="M 741.079 691.716 C 744.301 693.452 755.942 705.077 759.282 708.267 L 738.185 727.327 C 733.173 726.348 723.652 715.497 719.834 711.552 C 726.685 704.737 733.942 698.239 741.079 691.716 z"/>
<path transform="translate(0,0)" fill="rgb(215,197,156)" d="M 774.908 659.834 C 780.559 664.457 788.006 671.961 793.46 677.138 C 786.47 683.203 779.596 689.403 772.844 695.733 C 768.228 694.057 757.675 683.009 754.036 679.348 C 761.238 672.206 767.169 666.516 774.908 659.834 z"/>
<path transform="translate(0,0)" fill="rgb(215,197,156)" d="M 871.943 691.62 C 875.335 692.824 889.801 707.953 893.298 711.439 C 887.707 717.104 881.79 722.503 875.957 727.924 L 854.003 708.501 C 859.388 703.027 866.256 696.935 871.943 691.62 z"/>
<path transform="translate(0,0)" fill="rgb(215,197,156)" d="M 839.544 659.974 C 846.547 666.433 852.254 672.226 858.828 679.052 L 840.837 696.375 C 834.927 690.284 826.483 683.148 820.014 677.381 C 825.969 671.578 833.225 665.507 839.544 659.974 z"/>
<path transform="translate(0,0)" fill="rgb(215,197,156)" d="M 806.812 629.75 C 810.135 630.811 822.633 644.331 825.874 647.629 L 806.366 665.303 C 800.047 659.593 793.819 653.785 787.683 647.879 C 793.803 641.571 800.185 635.523 806.812 629.75 z"/>
<path transform="translate(0,0)" fill="rgb(215,197,156)" d="M 670.16 758.63 C 672.357 759.532 684.889 771.797 687.809 774.47 L 669.909 791.639 L 659.259 802.081 L 659.163 768.987 L 670.16 758.63 z"/>
<path transform="translate(0,0)" fill="rgb(215,197,156)" d="M 746.935 509.902 C 749.933 511.931 757.932 520.21 760.96 523.205 C 756.993 527.396 744.819 541.278 740.391 541.857 L 722.144 524.448 C 730.188 518.467 738.127 514.512 746.935 509.902 z"/>
<path transform="translate(0,0)" fill="rgb(215,197,156)" d="M 865.223 510.517 C 871.544 511.505 885.368 520.933 890.711 524.53 L 875.227 539.335 L 872.648 541.48 C 866.869 540.432 856.748 528.288 852.165 523.412 L 865.223 510.517 z"/>
<path transform="translate(0,0)" fill="rgb(215,197,156)" d="M 941.694 758.642 C 944.85 760.25 950.744 765.949 953.654 768.563 C 954.049 779.191 953.791 790.813 953.765 801.516 L 947.349 794.95 C 940.669 787.996 933.363 781.055 926.45 774.288 L 941.694 758.642 z"/>
<path transform="translate(0,0)" fill="rgb(215,197,156)" d="M 679.194 570.495 C 683.377 572.662 692.484 581.995 696.249 585.677 C 692.183 590.385 684.963 596.855 680.248 601.323 C 678.598 603.1 678.769 603.117 676.479 603.813 C 672.689 602.837 669.864 599.363 666.947 596.535 C 670.369 586.125 673.646 579.839 679.194 570.495 z"/>
<path transform="translate(0,0)" fill="rgb(215,197,156)" d="M 932.581 570.82 C 937.714 577.26 942.119 589.014 945.125 596.65 C 942.156 599.668 940.688 601.599 936.988 603.505 L 935.152 602.255 C 929.627 596.824 923.064 591.128 917.277 585.875 L 932.581 570.82 z"/>
<path transform="translate(0,0)" fill="rgb(204,193,191)" d="M 781.543 500.166 L 782.104 500.246 L 782.707 501.306 C 779.963 505.352 777.955 507.132 774.546 510.5 L 772.722 510.315 C 770.74 508.419 768.578 506.112 766.633 504.127 C 771.559 502.633 776.552 501.43 781.543 500.166 z"/>
<path transform="translate(0,0)" fill="rgb(204,193,191)" d="M 827.596 499.794 C 832.027 500.516 841.928 501.372 844.361 504.725 L 842.834 507.273 C 841.092 508.938 841.101 508.917 838.973 510.057 C 834.487 508.483 830.962 503.54 827.596 499.794 z"/>
<path transform="translate(0,0)" fill="rgb(113,135,113)" d="M 559.912 964.063 C 583.969 962.904 581.37 981.763 580.856 999.012 C 580.633 1006.48 580.691 1013.68 581.4 1021.11 C 585.843 1071.49 606.351 1119.11 639.902 1156.96 C 680.27 1202.12 734.78 1229.61 795.508 1232.74 C 854.124 1235.78 911.503 1215.13 954.731 1175.42 C 993.81 1139.88 1026.7 1082.67 1029.31 1029.35 C 1039.03 1038.85 1048.97 1048.83 1059.05 1057.86 C 1049.49 1099.99 1032.35 1137.53 1004.84 1170.92 C 963.906 1220.6 903.276 1257.46 838.816 1264.21 L 838.86 1487.5 L 838.88 1512.98 L 903.005 1512.85 C 915.708 1512.82 935.504 1512.03 947.221 1514.73 C 957.979 1517.19 967.958 1522.28 976.256 1529.56 C 992.113 1543.46 996.914 1558.12 998.377 1578.47 C 958.657 1579.62 914.061 1578.72 873.833 1578.76 L 613.732 1578.63 C 615.792 1560.36 619.375 1546.71 632.72 1533.07 C 656.387 1508.89 686.356 1512.9 717.458 1512.96 L 774.061 1512.99 L 774.009 1264.36 C 766.555 1263.56 756.963 1261.79 749.685 1260.11 C 681.466 1243.73 622.651 1200.71 586.386 1140.65 C 561.971 1100.88 547.591 1052.04 547.448 1005.34 C 547.397 988.744 543.383 973.163 559.912 964.063 z"/>
<path transform="translate(0,0)" fill="rgb(46,45,43)" d="M 1244.47 1106.87 L 1399.38 1106.85 C 1422.63 1106.84 1447 1106.38 1470.27 1107.43 C 1474.05 1107.61 1477.11 1109.44 1479.92 1111.95 C 1496.96 1127.16 1512.41 1144.2 1528.72 1160.18 C 1544.33 1176.46 1561.33 1191.71 1576.05 1208.78 C 1579.3 1212.55 1580.13 1214.59 1580.3 1219.57 C 1581 1241.04 1580.71 1262.56 1580.7 1284.04 L 1580.65 1404.17 L 1580.74 1496.33 C 1580.75 1511.6 1581.07 1527.71 1580.36 1542.87 C 1580.01 1550.46 1575.19 1561.05 1569.87 1566.47 C 1558.4 1578.16 1546.62 1578.66 1531.58 1578.69 C 1465.36 1578.8 1399.13 1578.73 1332.93 1578.71 L 1270.67 1578.75 C 1261.69 1578.74 1252.46 1579.12 1243.52 1578.56 C 1199.72 1575.79 1202.98 1541.37 1202.98 1509.99 L 1202.99 1454.08 L 1203.03 1254.35 L 1203.03 1202.03 L 1228.96 1228.41 L 1228.9 1432.03 L 1228.83 1498.85 C 1228.82 1511.28 1228.68 1523.6 1229.16 1536.03 C 1229.65 1548.42 1233.94 1552.9 1246.58 1552.93 C 1308.34 1553.05 1370.09 1552.99 1431.85 1553.05 L 1500.84 1553.08 C 1513.44 1553.08 1526.08 1553.29 1538.54 1552.7 C 1550.11 1552.16 1553.87 1548.36 1554.5 1536.95 C 1555.16 1524.95 1554.88 1512.68 1554.86 1500.67 L 1554.8 1437.2 L 1554.78 1230.97 C 1450.37 1229.91 1456.31 1239.68 1456.52 1132.62 C 1396.54 1130.69 1330.5 1133.23 1269.62 1132.41 C 1260.84 1125.1 1251.98 1115.46 1244.47 1106.87 z"/>
<path transform="translate(0,0)" fill="rgb(215,197,156)" d="M 1482.89 1150.91 C 1494.66 1160.76 1525.76 1193.22 1537.34 1205.28 C 1527.48 1205.23 1517.63 1205.27 1507.77 1205.4 C 1483.41 1205.51 1481.4 1204.43 1482.59 1180.25 C 1483.06 1170.7 1481.85 1160.74 1482.89 1150.91 z"/>
<path transform="translate(0,0)" fill="rgb(44,89,51)" d="M 1020.11 918.305 C 1025.2 921.312 1041.79 938.489 1046.65 943.334 L 1095.44 992.047 L 1328.57 1225 C 1338.05 1215.19 1346.88 1206.17 1356.81 1196.82 C 1358.07 1226.95 1363.12 1266.47 1366.09 1297.42 C 1356.01 1295.52 1341.77 1294.41 1331.17 1293.24 L 1266.54 1286.15 C 1275.64 1276.96 1284.83 1267.88 1294.11 1258.89 C 1268.31 1231.14 1234.52 1199.63 1207.31 1172.49 L 1031.29 996.462 C 1030.65 964.562 1028.74 949.146 1020.11 918.305 z"/>
<path transform="translate(0,0)" fill="rgb(113,135,113)" d="M 1232.99 536.014 C 1240.37 536.064 1245.06 537.535 1249.94 543.35 C 1268.33 565.261 1285.98 593.369 1298.3 618.874 C 1341.89 709.548 1348.13 813.717 1315.66 908.943 C 1305.7 937.446 1265.41 1021.38 1241.08 1033.06 C 1234.16 1033 1223.98 1031.1 1222.05 1023.45 C 1218.26 1008.48 1240.01 985.584 1248.25 972.93 C 1267.73 942.746 1282.33 909.682 1291.51 874.954 C 1310.26 803.082 1306.01 727.143 1279.38 657.808 C 1265.09 621.092 1246.53 591.827 1222.58 561.161 C 1215.19 551.703 1223 540.923 1232.99 536.014 z"/>
<path transform="translate(0,0)" fill="rgb(113,135,113)" d="M 1172.98 593.123 C 1190.97 590.582 1198.41 607.732 1207.13 620.977 C 1251.88 689.021 1267.62 772.86 1248.68 852.365 C 1245.53 865.881 1241.45 879.164 1236.48 892.12 C 1228.54 912.363 1201.91 965.338 1183.73 976.491 C 1169.35 978.391 1157.6 969.023 1163.83 953.781 C 1168.19 943.141 1178.56 934.176 1184.33 924.486 C 1199.76 898.569 1212.1 867.107 1218.28 837.764 C 1231.18 774.668 1220.69 709.032 1188.75 653.107 C 1181.7 640.66 1173.22 629.78 1165.12 618.048 C 1157.82 607.469 1163.56 599.195 1172.98 593.123 z"/>
<path transform="translate(0,0)" fill="rgb(113,135,113)" d="M 491.224 644.116 C 504.115 645.471 512.609 653.905 507.697 667.552 C 504.923 673.666 499.017 679.147 495.647 684.754 C 459.864 744.287 458.105 815.409 490.989 876.551 C 495.912 885.704 503.719 894.089 507.885 902.754 C 512.809 912.995 505.556 921.471 496.037 925.77 C 485.526 925.193 480.136 920.613 474.138 911.938 C 424.759 840.525 422.037 742.831 467.265 668.682 C 473.425 658.584 478.969 647.447 491.224 644.116 z"/>
<path transform="translate(0,0)" fill="rgb(113,135,113)" d="M 1116.96 651.155 C 1133.49 650.674 1141.91 667.063 1149.19 679.902 C 1177.03 729.185 1184.21 787.489 1169.16 842.054 C 1163.35 862.803 1144.34 907.897 1125.43 918.519 C 1118.41 919.541 1110.84 918.081 1107.02 911.59 C 1098.77 897.549 1112.92 886.181 1119.43 875.397 C 1151.53 822.248 1151.65 754.599 1122.93 700.024 C 1116.56 687.918 1101.62 676.364 1105.34 662.491 C 1106.99 656.733 1111.93 653.77 1116.96 651.155 z"/>
<path transform="translate(0,0)" fill="rgb(46,45,43)" d="M 1273.69 1433.24 C 1351.35 1432.1 1433.39 1433.36 1511.22 1433.82 C 1520.2 1433.87 1527.92 1451.48 1511.47 1459.05 C 1487.88 1459.41 1275.55 1460.41 1270.39 1458.31 C 1267.36 1457.08 1265.18 1454.96 1263.82 1452.03 C 1262.22 1448.54 1262.18 1444.54 1263.69 1441.01 C 1265.75 1436.29 1269.2 1434.89 1273.69 1433.24 z"/>
<path transform="translate(0,0)" fill="rgb(46,45,43)" d="M 1271.59 1325.09 C 1319.06 1323.61 1374.53 1325.05 1422.65 1325.01 L 1480.05 1324.93 C 1488.54 1324.92 1501.43 1324.19 1509.55 1325.29 C 1523.99 1327.24 1525.04 1343.06 1512.52 1350.32 C 1498.24 1351.46 1476.59 1350.77 1461.44 1350.77 L 1366.48 1350.72 C 1335.16 1350.72 1302.73 1351.57 1271.59 1349.93 C 1261.48 1349.4 1257.95 1332.77 1271.59 1325.09 z"/>
<path transform="translate(0,0)" fill="rgb(46,45,43)" d="M 1272.56 1379.21 C 1288.9 1378.64 1308.45 1379.12 1325 1379.12 L 1432.84 1379.21 C 1458.71 1379.21 1486.25 1377.88 1511.74 1379.98 C 1522.49 1380.86 1525.77 1397.64 1511.65 1404.57 C 1497.65 1405.38 1478.14 1404.74 1463.71 1404.74 L 1372.86 1404.77 L 1308.74 1404.77 C 1298.81 1404.77 1282.45 1405.69 1273.29 1404.18 C 1260.09 1402.01 1258.34 1386.03 1272.56 1379.21 z"/>
<path transform="translate(0,0)" fill="rgb(113,135,113)" d="M 549.108 701.145 C 581.189 703.889 560.698 732.737 554.305 747.727 C 544.128 771.737 544.248 798.87 554.636 822.789 C 561.304 838.084 580.891 860.179 552.809 868.118 C 535.571 866.283 527.712 845.146 522.28 830.805 C 509.558 797.22 512.009 757.761 527.657 725.574 C 532.625 715.355 537.744 705.243 549.108 701.145 z"/>
<path transform="translate(0,0)" fill="rgb(113,135,113)" d="M 1059.29 706.972 C 1069.92 707.011 1074.95 712.257 1080.32 721.362 C 1096.53 748.841 1101.25 784.046 1093.65 814.946 C 1089.93 830.088 1080.1 854.713 1066.38 863.034 C 1028.83 863.493 1053.72 831.673 1059.6 814.646 C 1062.43 806.242 1064.01 797.468 1064.29 788.604 C 1064.75 776.037 1063.79 769.848 1060.27 757.931 C 1054.53 738.558 1032.05 719.649 1059.29 706.972 z"/>
<path transform="translate(0,0)" fill="rgb(46,45,43)" d="M 1273.69 1487.34 C 1291.66 1487.01 1426.15 1485.49 1434.03 1488.35 C 1437.31 1489.55 1439.88 1491.69 1441.17 1494.98 C 1442.47 1498.29 1442.69 1503.14 1440.98 1506.34 C 1439.04 1509.98 1435.54 1511.56 1431.87 1512.93 C 1392.93 1512.94 1312.53 1514.05 1270.43 1512 C 1263.85 1511.68 1255.28 1492.69 1273.69 1487.34 z"/>
<path transform="translate(0,0)" fill="rgb(46,45,43)" d="M 1402.74 1271.11 C 1437.16 1269.33 1474 1271.61 1508.63 1270.99 C 1512.38 1270.92 1516.54 1273.26 1518.74 1276.32 C 1520.95 1279.45 1521.73 1283.38 1520.87 1287.12 C 1519.8 1291.95 1516.67 1294.01 1512.75 1296.42 C 1486.82 1299.54 1452.2 1294.95 1425.47 1296.85 C 1419.41 1296.41 1411.49 1297.53 1405.63 1296.14 C 1390.02 1292.44 1392.92 1278.69 1402.74 1271.11 z"/>
<path transform="translate(0,0)" fill="rgb(46,45,43)" fill-opacity="0.168627" d="M 2010.13 1875.72 L 2011.36 1876.88 C 2012.77 1881.72 2011.94 1886.18 2011.5 1891.29 L 2010.55 1890.35 C 2009.52 1884.93 2009.92 1881.2 2010.13 1875.72 z"/>
<path transform="translate(0,0)" fill="rgb(46,45,43)" fill-opacity="0.12549" d="M 2010.16 1751.64 L 2011.33 1752.63 C 2012.84 1756.5 2012.03 1758.86 2011.46 1763.17 L 2010.69 1763.02 C 2009.4 1759.47 2009.97 1755.48 2010.16 1751.64 z"/>
<path transform="translate(0,0)" fill="url(#Gradient1)" d="M 186.454 388.505 L 190.879 389.007 C 192.373 391.65 191.519 392.114 190.79 396.019 L 189.899 396.324 C 189.781 394.006 189.528 392.626 189.137 390.329 L 186.454 388.505 z"/>
</svg>